<svg width="24" height="24" viewBox="0 0 24 24" fill="none" xmlns="http://www.w3.org/2000/svg">
<path d="M13.0001 16.5C13.0001 16.7652 12.8947 17.0196 12.7072 17.2071C12.5197 17.3946 12.2653 17.5 12.0001 17.5C11.7349 17.5 11.4805 17.3946 11.293 17.2071C11.1055 17.0196 11.0001 16.7652 11.0001 16.5C11.0001 16.2348 11.1055 15.9804 11.293 15.7929C11.4805 15.6054 11.7349 15.5 12.0001 15.5C12.2653 15.5 12.5197 15.6054 12.7072 15.7929C12.8947 15.9804 13.0001 16.2348 13.0001 16.5ZM10.4831 8.835C10.5951 8.612 10.7511 8.411 10.9711 8.265C11.1861 8.12 11.5061 8 12.0001 8C12.3841 8 12.7661 8.118 13.0341 8.319C13.1625 8.40968 13.2666 8.53073 13.3369 8.67136C13.4072 8.81199 13.4416 8.96783 13.4371 9.125C13.4371 9.605 13.2191 9.935 12.8171 10.311C12.6842 10.4329 12.5478 10.551 12.4081 10.665C12.3093 10.747 12.2113 10.83 12.1141 10.914C11.8681 11.127 11.5901 11.388 11.3761 11.709L11.2501 11.899V13.5C11.2501 13.6989 11.3291 13.8897 11.4698 14.0303C11.6104 14.171 11.8012 14.25 12.0001 14.25C12.199 14.25 12.3898 14.171 12.5304 14.0303C12.6711 13.8897 12.7501 13.6989 12.7501 13.5V12.38C12.8401 12.28 12.9531 12.172 13.0971 12.047C13.1601 11.992 13.2371 11.928 13.3191 11.86C13.4851 11.72 13.6771 11.56 13.8391 11.408C14.3751 10.908 14.9371 10.208 14.9371 9.125C14.9417 8.73493 14.8531 8.3494 14.6786 8.00049C14.5042 7.65158 14.2489 7.34937 13.9341 7.119C13.3701 6.695 12.6581 6.5 12.0001 6.5C11.2441 6.5 10.6271 6.691 10.1391 7.017C9.71197 7.30576 9.36817 7.70163 9.1421 8.165C9.06146 8.34179 9.05258 8.54298 9.11733 8.72619C9.18209 8.9094 9.31543 9.06032 9.48925 9.14717C9.66308 9.23402 9.86383 9.25001 10.0492 9.19178C10.2346 9.13355 10.3902 9.00564 10.4831 8.835V8.835Z" fill="black"/>
<path fill-rule="evenodd" clip-rule="evenodd" d="M9.86399 1.19999C10.4834 0.745378 11.2317 0.500244 12 0.500244C12.7683 0.500244 13.5166 0.745378 14.136 1.19999L15.511 2.20999C15.785 2.40999 16.104 2.54299 16.44 2.59399L18.126 2.85299C18.8854 2.96942 19.5878 3.32507 20.1311 3.86821C20.6744 4.41135 21.0303 5.11365 21.147 5.87299L21.406 7.55999C21.457 7.89599 21.589 8.21499 21.79 8.48899L22.8 9.86399C23.2546 10.4834 23.4997 11.2317 23.4997 12C23.4997 12.7683 23.2546 13.5166 22.8 14.136L21.79 15.511C21.589 15.7852 21.4573 16.1039 21.406 16.44L21.147 18.126C21.0306 18.8854 20.6749 19.5878 20.1318 20.1311C19.5886 20.6744 18.8863 21.0303 18.127 21.147L16.44 21.406C16.1039 21.4573 15.7852 21.589 15.511 21.79L14.136 22.8C13.5166 23.2546 12.7683 23.4997 12 23.4997C11.2317 23.4997 10.4834 23.2546 9.86399 22.8L8.48899 21.79C8.21478 21.589 7.89607 21.4573 7.55999 21.406L5.87399 21.147C5.11462 21.0306 4.41219 20.6749 3.86887 20.1318C3.32555 19.5886 2.96967 18.8863 2.85299 18.127L2.59399 16.44C2.5427 16.1039 2.41096 15.7852 2.20999 15.511L1.19999 14.136C0.745378 13.5166 0.500244 12.7683 0.500244 12C0.500244 11.2317 0.745378 10.4834 1.19999 9.86399L2.20999 8.48899C2.41096 8.21478 2.5427 7.89607 2.59399 7.55999L2.85299 5.87399C2.96942 5.11462 3.32507 4.41219 3.86821 3.86887C4.41135 3.32555 5.11365 2.96967 5.87299 2.85299L7.55999 2.59399C7.89607 2.5427 8.21478 2.41096 8.48899 2.20999L9.86399 1.19999ZM13.248 2.40899C12.886 2.14349 12.4489 2.00034 12 2.00034C11.5511 2.00034 11.1139 2.14349 10.752 2.40899L9.37599 3.41899C8.90706 3.76313 8.36193 3.98887 7.78699 4.07699L6.10099 4.33499C5.65697 4.40304 5.24627 4.61101 4.92864 4.92864C4.61101 5.24627 4.40304 5.65697 4.33499 6.10099L4.07699 7.78699C3.98902 8.36228 3.76328 8.90777 3.41899 9.37699L2.40899 10.752C2.14349 11.1139 2.00034 11.5511 2.00034 12C2.00034 12.4489 2.14349 12.886 2.40899 13.248L3.41899 14.624C3.76313 15.0929 3.98887 15.638 4.07699 16.213L4.33499 17.899C4.40323 18.3428 4.61129 18.7533 4.9289 19.0707C5.24652 19.3882 5.65712 19.596 6.10099 19.664L7.78699 19.924C8.36219 20.0117 8.90768 20.2371 9.37699 20.581L10.752 21.591C11.1139 21.8565 11.5511 21.9996 12 21.9996C12.4489 21.9996 12.886 21.8565 13.248 21.591L14.624 20.581C15.0929 20.2368 15.638 20.0111 16.213 19.923L17.899 19.665C18.3428 19.5967 18.7533 19.3887 19.0707 19.0711C19.3882 18.7535 19.596 18.3429 19.664 17.899L19.924 16.213C20.0117 15.6378 20.2371 15.0923 20.581 14.623L21.591 13.248C21.8565 12.886 21.9996 12.4489 21.9996 12C21.9996 11.5511 21.8565 11.1139 21.591 10.752L20.581 9.37599C20.2368 8.90706 20.0111 8.36193 19.923 7.78699L19.665 6.10099C19.5969 5.65697 19.389 5.24627 19.0713 4.92864C18.7537 4.61101 18.343 4.40304 17.899 4.33499L16.213 4.07699C15.6377 3.98902 15.0922 3.76328 14.623 3.41899L13.248 2.40899V2.40899Z" fill="black"/>
</svg>
